<svg id="Group_7" data-name="Group 7" xmlns="http://www.w3.org/2000/svg" width="24.865" height="44.61" viewBox="0 0 24.865 44.61">
  <g id="Group_8" data-name="Group 8">
    <path id="Path_4" data-name="Path 4" d="M10.724,32.61V12a7,7,0,0,0,0-12V4.35A3.66,3.66,0,0,1,7.254,8h-.39a3.64,3.64,0,0,1-3.47-3.65V0a7,7,0,0,0,0,11.94V32.61a7,7,0,0,0,0,12v-4.4a3.65,3.65,0,0,1,3.59-3.66h.13a3.67,3.67,0,0,1,3.6,3.66v4.35a7,7,0,0,0,0-12Z" fill="#cc2028"/>
    <path id="Path_5" data-name="Path 5" d="M22.635,14h-4.51l-2.26,3.91,2.26,3.94h4.51l2.23-3.94Zm-2.26,5a.458.458,0,1,1,0,.01Z" fill="#cc2028"/>
  </g>
</svg>
