<svg xmlns="http://www.w3.org/2000/svg" viewBox="0 0 38.97 35.1"><defs><style>.cls-1{fill:#cc2028;}</style></defs><title>Asset 8</title><g id="Layer_2" data-name="Layer 2"><g id="Layer_1-2" data-name="Layer 1"><circle class="cls-1" cx="4.44" cy="12.08" r="4.44"/><polyline class="cls-1" points="0.35 10.36 4.44 0.49 8.53 10.36"/><circle class="cls-1" cx="19.03" cy="11.59" r="4.44"/><polyline class="cls-1" points="14.94 9.87 19.03 0 23.12 9.87"/><circle class="cls-1" cx="34.53" cy="11.59" r="4.44"/><polyline class="cls-1" points="30.44 9.87 34.53 0 38.62 9.87"/><rect class="cls-1" y="33.59" width="38.62" height="1.51"/><path class="cls-1" d="M38.62,30.39a6.41,6.41,0,0,1-4.45-1.75,4.55,4.55,0,0,0-6.41,0,6.53,6.53,0,0,1-8.9,0,4.55,4.55,0,0,0-6.41,0A6.39,6.39,0,0,1,8,30.39a6.37,6.37,0,0,1-4.45-1.75,4.46,4.46,0,0,0-3.2-1.32v-2A6.41,6.41,0,0,1,4.8,27.07,4.44,4.44,0,0,0,8,28.39a4.44,4.44,0,0,0,3.2-1.32,6.53,6.53,0,0,1,8.91,0,4.55,4.55,0,0,0,6.4,0,6.55,6.55,0,0,1,8.91,0,4.46,4.46,0,0,0,3.2,1.32Z"/><path class="cls-1" d="M38.62,24.72A6.41,6.41,0,0,1,34.17,23a4.58,4.58,0,0,0-6.41,0,6.53,6.53,0,0,1-8.9,0,4.58,4.58,0,0,0-6.41,0A6.39,6.39,0,0,1,8,24.72,6.37,6.37,0,0,1,3.55,23a4.49,4.49,0,0,0-3.2-1.31v-2A6.41,6.41,0,0,1,4.8,21.41a4.56,4.56,0,0,0,6.4,0,6.55,6.55,0,0,1,8.91,0,4.56,4.56,0,0,0,6.4,0,6.55,6.55,0,0,1,8.91,0,4.49,4.49,0,0,0,3.2,1.31Z"/></g></g></svg>