<svg xmlns="http://www.w3.org/2000/svg" viewBox="0 0 46.68 45.67"><defs><style>.cls-1{fill:#cc2028;}.cls-2{fill:#fff;}</style></defs><title>Asset 4</title><g id="Layer_2" data-name="Layer 2"><g id="Layer_1-2" data-name="Layer 1"><rect class="cls-1" x="20.06" y="19.09" width="45.66" height="7.5" transform="translate(20.13 65.77) rotate(-90.11)"/><rect class="cls-2" x="42.98" y="2.55" width="3.62" height="0.68" transform="translate(-0.01 0.08) rotate(-0.11)"/><rect class="cls-2" x="42.99" y="8.25" width="3.62" height="0.68" transform="translate(-0.02 0.08) rotate(-0.11)"/><rect class="cls-2" x="43.01" y="13.95" width="3.62" height="0.68" transform="translate(-0.03 0.08) rotate(-0.11)"/><rect class="cls-2" x="43.02" y="19.64" width="3.62" height="0.68" transform="translate(-0.04 0.08) rotate(-0.11)"/><rect class="cls-2" x="43.03" y="25.34" width="3.62" height="0.68" transform="translate(-0.05 0.08) rotate(-0.11)"/><rect class="cls-2" x="43.04" y="31.04" width="3.62" height="0.68" transform="translate(-0.06 0.08) rotate(-0.11)"/><rect class="cls-2" x="43.05" y="36.73" width="3.62" height="0.68" transform="translate(-0.07 0.08) rotate(-0.11)"/><rect class="cls-2" x="43.06" y="42.43" width="3.62" height="0.68" transform="translate(-0.08 0.08) rotate(-0.11)"/><rect class="cls-2" x="44.41" y="4.83" width="2.2" height="0.68" transform="translate(-0.01 0.09) rotate(-0.11)"/><rect class="cls-2" x="44.42" y="10.72" width="2.2" height="0.68" transform="translate(-0.02 0.09) rotate(-0.11)"/><rect class="cls-2" x="44.43" y="16.61" width="2.2" height="0.68" transform="translate(-0.03 0.09) rotate(-0.11)"/><rect class="cls-2" x="44.44" y="22.49" width="2.2" height="0.68" transform="translate(-0.04 0.09) rotate(-0.11)"/><rect class="cls-2" x="44.45" y="28.38" width="2.2" height="0.68" transform="translate(-0.05 0.09) rotate(-0.11)"/><rect class="cls-2" x="44.46" y="34.26" width="2.2" height="0.68" transform="translate(-0.06 0.09) rotate(-0.11)"/><rect class="cls-2" x="44.47" y="40.15" width="2.2" height="0.68" transform="translate(-0.08 0.09) rotate(-0.11)"/><path class="cls-1" d="M30.52,7.64a3.75,3.75,0,0,0,0-5.31,3.74,3.74,0,0,0-5.3,0l-7.75,8.6-.24.27v4.23l-1.9-1.9h0l-.08-.08L11.46,9.66.08,33.13a.77.77,0,0,0,1,1.06l26-9L19.6,17.79V11.88Z"/></g></g></svg>