<svg xmlns="http://www.w3.org/2000/svg" viewBox="0 0 22.13 35.94"><defs><style>.cls-1{fill:#cc2028;}</style></defs><title>Asset 7</title><g id="Layer_2" data-name="Layer 2"><g id="Layer_1-2" data-name="Layer 1"><path class="cls-1" d="M20.1,0a1.79,1.79,0,0,1-1.6,1,1.81,1.81,0,0,1-1.61-1H5.31A1.81,1.81,0,0,1,3.7,1,1.81,1.81,0,0,1,2.09,0a2.26,2.26,0,0,0,0,4.51,1.81,1.81,0,0,1,3.22,0H8.1v6.62a4.52,4.52,0,0,0-1.56,3.4v3.3h9.05v-3.3A4.51,4.51,0,0,0,14,11.14V4.52h2.85a1.81,1.81,0,0,1,1.61-1,1.84,1.84,0,0,1,1.61,1,2.21,2.21,0,0,0,1.36-.65,2.23,2.23,0,0,0,.66-1.6A2.27,2.27,0,0,0,20.1,0Z"/><path class="cls-1" d="M11,30.15,8.58,24.44,6.2,30.15l-1,2.4a3.38,3.38,0,1,0,6.76,0Z"/><path class="cls-1" d="M15.94,24.42l-1.29-3.09-1.29,3.09-.54,1.3a1.83,1.83,0,1,0,3.66,0Z"/></g></g></svg>