<svg xmlns="http://www.w3.org/2000/svg" viewBox="0 0 26.2 44.56"><defs><style>.cls-1{fill:#cc2028;}</style></defs><title>Asset 5</title><g id="Layer_2" data-name="Layer 2"><g id="Layer_1-2" data-name="Layer 1"><path class="cls-1" d="M22.86,32.61V12A7,7,0,0,0,22.86,0V4.35A3.66,3.66,0,0,1,19.39,8H19a3.64,3.64,0,0,1-3.47-3.65V0a7,7,0,0,0,0,11.94V32.61a7,7,0,0,0,0,12V40.21a3.65,3.65,0,0,1,3.59-3.66h.13a3.67,3.67,0,0,1,3.6,3.66v4.35a7,7,0,0,0,0-12Z"/><path class="cls-1" d="M6.77,11.15H2.26L0,15.06,2.26,19H6.77L9,15.06Zm-2.26,5a1.11,1.11,0,1,1,1.11-1.1A1.11,1.11,0,0,1,4.51,16.16Z"/></g></g></svg>